<?xml version="1.0" encoding="UTF-8" standalone="no"?>
<!-- Created with Inkscape (http://www.inkscape.org/) -->
<svg xmlns:rdf="http://www.w3.org/1999/02/22-rdf-syntax-ns#" xmlns="http://www.w3.org/2000/svg" height="15" width="15" version="1.1" xmlns:cc="http://creativecommons.org/ns#" xmlns:dc="http://purl.org/dc/elements/1.1/">
	<metadata>
		<rdf:RDF>
			<cc:Work rdf:about="">
				<dc:format>image/svg+xml</dc:format>
				<dc:type rdf:resource="http://purl.org/dc/dcmitype/StillImage"/>
				<dc:title/>
			</cc:Work>
		</rdf:RDF>
	</metadata>
	<path style="color:#ffffff;enable-background:accumulate;" fill-rule="evenodd" fill="#ffffff" d="m2.8833,0.001368c-0.73587,0-1.4736,0.28055-2.0375,0.84438-1.1277,1.1277-1.1277,2.9431,0,4.0707l2.5836,2.5836-2.5836,2.5836c-1.1277,1.1277-1.1277,2.9431,0,4.0705,1.1277,1.1279,2.9431,1.1279,4.0707,0l2.5836-2.5835,2.5836,2.5835c1.1277,1.1279,2.9431,1.1279,4.0705,0,1.1279-1.1274,1.1279-2.9428,0-4.0705l-2.583-2.584,2.583-2.5836c1.1279-1.1276,1.1279-2.9429,0-4.0707-1.1275-1.1277-2.9428-1.1277-4.0705,0l-2.584,2.5836-2.5836-2.5836c-0.5638-0.56382-1.2974-0.84437-2.0331-0.84437z">
		<title>Delete this Item</title>
	</path>
</svg>
